# xmcd
#
# Track frame offsets:
#	150
#	15540
#	30385
#	44080
#	52770
#	62755
#	74945
#	89920
#	103205
#	115312
#	131675
#	146695
#	157587
#	170595
#	184115
#	195597
#	208422
#
# Disc length: 3073 seconds
# Revision: 0
# Processed by: cddbd v1.5.2PL0 Copyright (c) Steve Scherf et al.
# Submitted via: dBpowerAMP V12.0
#
DISCID=020bff11
DTITLE=Various Artist - Get It In Your Soul with Soulful Guitars 1965-2011
DYEAR=2011
DGENRE=Soul
TTITLE0=The Bo-Keys feat. Otis Cray - Got  to Get Back
TTITLE1=W. C. Clark - Sunshine Lady
TTITLE2=Robert Ward - Forgive Me Darling
TTITLE3=Mary Love - Dance Chidren Dance
TTITLE4=Peggy Paxton - It Ain't What You Do
TTITLE5=Johnny Gilliam - Baby Take Me Back
TTITLE6=Johnny Copeland - Dear Mother
TTITLE7=Roscoe Robinson - Let Me Be Myself
TTITLE8=Clay Hammond - I'm Gone Be Sweeter
TTITLE9=Bobby Powell - Never Look Back
TTITLE10=The Montclairs - Hung Up On Your Love
TTITLE11=Billy Keene - Losers Win Sometimes
TTITLE12=Fontella Bass - It's Hard To Get Back In
TTITLE13=Clarence Carter - Slip Away Again
TTITLE14=The Four Tees - One Moer Chance
TTITLE15=Ted Taylor - I'm Lonely Tonight
TTITLE16=Cornell Dupree - Rainy Night In Georgia
EXTD=
EXTT0=
EXTT1=
EXTT2=
EXTT3=
EXTT4=
EXTT5=
EXTT6=
EXTT7=
EXTT8=
EXTT9=
EXTT10=
EXTT11=
EXTT12=
EXTT13=
EXTT14=
EXTT15=
EXTT16=
PLAYORDER=
